<mxfile host="app.diagrams.net" agent="Mozilla/5.0 (Windows NT 10.0; Win64; x64) AppleWebKit/537.36 (KHTML, like Gecko) Chrome/131.0.0.0 Safari/537.36" version="26.0.2">
  <diagram name="Page-1" id="0vHZpXSDEFMaFqVUi6E4">
    <mxGraphModel dx="1613" dy="1913" grid="1" gridSize="10" guides="1" tooltips="1" connect="1" arrows="1" fold="1" page="1" pageScale="1" pageWidth="827" pageHeight="1169" math="0" shadow="0">
      <root>
        <mxCell id="0" />
        <mxCell id="1" parent="0" />
        <mxCell id="3Mx3kTMHKag-bXKHGl6B-4" style="edgeStyle=orthogonalEdgeStyle;rounded=0;orthogonalLoop=1;jettySize=auto;html=1;entryX=0;entryY=0.5;entryDx=0;entryDy=0;" parent="1" target="3Mx3kTMHKag-bXKHGl6B-3" edge="1">
          <mxGeometry relative="1" as="geometry">
            <mxPoint x="240" y="340" as="sourcePoint" />
          </mxGeometry>
        </mxCell>
        <mxCell id="3Mx3kTMHKag-bXKHGl6B-1" value="Jogging app&lt;br&gt;Joggy&lt;br&gt;Android/IOS" style="ellipse;whiteSpace=wrap;html=1;aspect=fixed;" parent="1" vertex="1">
          <mxGeometry x="90" y="260" width="140" height="140" as="geometry" />
        </mxCell>
        <mxCell id="3Mx3kTMHKag-bXKHGl6B-22" style="edgeStyle=orthogonalEdgeStyle;rounded=0;orthogonalLoop=1;jettySize=auto;html=1;" parent="1" source="3Mx3kTMHKag-bXKHGl6B-2" target="3Mx3kTMHKag-bXKHGl6B-21" edge="1">
          <mxGeometry relative="1" as="geometry" />
        </mxCell>
        <mxCell id="3Mx3kTMHKag-bXKHGl6B-48" style="edgeStyle=orthogonalEdgeStyle;rounded=0;orthogonalLoop=1;jettySize=auto;html=1;exitX=0;exitY=1;exitDx=0;exitDy=0;entryX=0.5;entryY=0;entryDx=0;entryDy=0;" parent="1" source="3Mx3kTMHKag-bXKHGl6B-2" target="3Mx3kTMHKag-bXKHGl6B-45" edge="1">
          <mxGeometry relative="1" as="geometry">
            <Array as="points">
              <mxPoint x="769" y="420" />
              <mxPoint x="525" y="420" />
            </Array>
          </mxGeometry>
        </mxCell>
        <mxCell id="3Mx3kTMHKag-bXKHGl6B-55" style="edgeStyle=orthogonalEdgeStyle;rounded=0;orthogonalLoop=1;jettySize=auto;html=1;exitX=0;exitY=0;exitDx=0;exitDy=0;entryX=1;entryY=0.5;entryDx=0;entryDy=0;" parent="1" source="3Mx3kTMHKag-bXKHGl6B-2" target="3Mx3kTMHKag-bXKHGl6B-6" edge="1">
          <mxGeometry relative="1" as="geometry" />
        </mxCell>
        <mxCell id="3Mx3kTMHKag-bXKHGl6B-2" value="Jogging app server backend&lt;div&gt;&lt;br&gt;&lt;/div&gt;" style="ellipse;whiteSpace=wrap;html=1;aspect=fixed;" parent="1" vertex="1">
          <mxGeometry x="750" y="270" width="170" height="170" as="geometry" />
        </mxCell>
        <mxCell id="3Mx3kTMHKag-bXKHGl6B-5" style="edgeStyle=orthogonalEdgeStyle;rounded=0;orthogonalLoop=1;jettySize=auto;html=1;entryX=0;entryY=0.5;entryDx=0;entryDy=0;" parent="1" source="3Mx3kTMHKag-bXKHGl6B-3" target="3Mx3kTMHKag-bXKHGl6B-2" edge="1">
          <mxGeometry relative="1" as="geometry">
            <mxPoint x="769" y="381" as="targetPoint" />
          </mxGeometry>
        </mxCell>
        <mxCell id="3Mx3kTMHKag-bXKHGl6B-3" value="User data, location service, invoice data. Emergency notification" style="rounded=1;whiteSpace=wrap;html=1;" parent="1" vertex="1">
          <mxGeometry x="414" y="305" width="170" height="60" as="geometry" />
        </mxCell>
        <mxCell id="3Mx3kTMHKag-bXKHGl6B-7" style="edgeStyle=orthogonalEdgeStyle;rounded=0;orthogonalLoop=1;jettySize=auto;html=1;entryX=1;entryY=0;entryDx=0;entryDy=0;" parent="1" source="3Mx3kTMHKag-bXKHGl6B-6" target="3Mx3kTMHKag-bXKHGl6B-1" edge="1">
          <mxGeometry relative="1" as="geometry" />
        </mxCell>
        <mxCell id="3Mx3kTMHKag-bXKHGl6B-6" value="Emergency notification, real time map navigation, other user profiles modules, notification, invoice&amp;nbsp;" style="rounded=1;whiteSpace=wrap;html=1;" parent="1" vertex="1">
          <mxGeometry x="420" y="190" width="190" height="80" as="geometry" />
        </mxCell>
        <mxCell id="3Mx3kTMHKag-bXKHGl6B-18" style="edgeStyle=orthogonalEdgeStyle;rounded=0;orthogonalLoop=1;jettySize=auto;html=1;exitX=1;exitY=0;exitDx=0;exitDy=0;entryX=1;entryY=1;entryDx=0;entryDy=0;" parent="1" source="3Mx3kTMHKag-bXKHGl6B-9" target="3Mx3kTMHKag-bXKHGl6B-14" edge="1">
          <mxGeometry relative="1" as="geometry" />
        </mxCell>
        <mxCell id="3Mx3kTMHKag-bXKHGl6B-9" value="Joggin app service center" style="ellipse;whiteSpace=wrap;html=1;aspect=fixed;" parent="1" vertex="1">
          <mxGeometry x="862" y="770" width="120" height="120" as="geometry" />
        </mxCell>
        <mxCell id="3Mx3kTMHKag-bXKHGl6B-17" style="edgeStyle=orthogonalEdgeStyle;rounded=0;orthogonalLoop=1;jettySize=auto;html=1;exitX=0;exitY=1;exitDx=0;exitDy=0;entryX=0;entryY=0;entryDx=0;entryDy=0;" parent="1" source="3Mx3kTMHKag-bXKHGl6B-14" target="3Mx3kTMHKag-bXKHGl6B-9" edge="1">
          <mxGeometry relative="1" as="geometry" />
        </mxCell>
        <mxCell id="3Mx3kTMHKag-bXKHGl6B-14" value="Emergency Notification System, jogging routs information invoice information" style="rounded=1;whiteSpace=wrap;html=1;" parent="1" vertex="1">
          <mxGeometry x="827" y="590" width="190" height="80" as="geometry" />
        </mxCell>
        <mxCell id="3Mx3kTMHKag-bXKHGl6B-19" style="edgeStyle=orthogonalEdgeStyle;rounded=0;orthogonalLoop=1;jettySize=auto;html=1;exitX=0.75;exitY=0;exitDx=0;exitDy=0;" parent="1" target="3Mx3kTMHKag-bXKHGl6B-2" edge="1">
          <mxGeometry relative="1" as="geometry">
            <mxPoint x="970.54" y="590" as="sourcePoint" />
            <mxPoint x="862.0019407771254" y="380.9619407771254" as="targetPoint" />
            <Array as="points">
              <mxPoint x="970" y="430" />
            </Array>
          </mxGeometry>
        </mxCell>
        <mxCell id="3Mx3kTMHKag-bXKHGl6B-20" style="edgeStyle=orthogonalEdgeStyle;rounded=0;orthogonalLoop=1;jettySize=auto;html=1;entryX=0.25;entryY=0;entryDx=0;entryDy=0;exitX=0.628;exitY=1;exitDx=0;exitDy=0;exitPerimeter=0;" parent="1" source="3Mx3kTMHKag-bXKHGl6B-2" target="3Mx3kTMHKag-bXKHGl6B-14" edge="1">
          <mxGeometry relative="1" as="geometry">
            <mxPoint x="860" y="420" as="sourcePoint" />
          </mxGeometry>
        </mxCell>
        <mxCell id="3Mx3kTMHKag-bXKHGl6B-34" style="edgeStyle=orthogonalEdgeStyle;rounded=0;orthogonalLoop=1;jettySize=auto;html=1;" parent="1" source="3Mx3kTMHKag-bXKHGl6B-21" edge="1">
          <mxGeometry relative="1" as="geometry">
            <mxPoint x="1560" y="335" as="targetPoint" />
          </mxGeometry>
        </mxCell>
        <mxCell id="3Mx3kTMHKag-bXKHGl6B-21" value="User data, invoice data, jogging information per session,&lt;br&gt;Emergency notification&amp;nbsp;&lt;span style=&quot;background-color: initial;&quot;&gt;&amp;nbsp;user profiles modules&lt;/span&gt;" style="rounded=1;whiteSpace=wrap;html=1;" parent="1" vertex="1">
          <mxGeometry x="1090" y="275" width="280" height="120" as="geometry" />
        </mxCell>
        <mxCell id="3Mx3kTMHKag-bXKHGl6B-24" style="edgeStyle=orthogonalEdgeStyle;rounded=0;orthogonalLoop=1;jettySize=auto;html=1;exitX=0;exitY=0.75;exitDx=0;exitDy=0;entryX=0.964;entryY=0.686;entryDx=0;entryDy=0;entryPerimeter=0;" parent="1" source="3Mx3kTMHKag-bXKHGl6B-21" target="3Mx3kTMHKag-bXKHGl6B-2" edge="1">
          <mxGeometry relative="1" as="geometry">
            <mxPoint x="890" y="345" as="sourcePoint" />
            <mxPoint x="1100" y="345" as="targetPoint" />
          </mxGeometry>
        </mxCell>
        <mxCell id="3Mx3kTMHKag-bXKHGl6B-29" style="edgeStyle=orthogonalEdgeStyle;rounded=0;orthogonalLoop=1;jettySize=auto;html=1;entryX=0.5;entryY=0;entryDx=0;entryDy=0;" parent="1" source="3Mx3kTMHKag-bXKHGl6B-25" target="3Mx3kTMHKag-bXKHGl6B-2" edge="1">
          <mxGeometry relative="1" as="geometry" />
        </mxCell>
        <mxCell id="3Mx3kTMHKag-bXKHGl6B-25" value="Authentication server&lt;div&gt;&amp;nbsp;(OAuth 2.0, MFA)&lt;/div&gt;" style="ellipse;whiteSpace=wrap;html=1;aspect=fixed;" parent="1" vertex="1">
          <mxGeometry x="760" y="70" width="130" height="130" as="geometry" />
        </mxCell>
        <mxCell id="3Mx3kTMHKag-bXKHGl6B-26" style="edgeStyle=orthogonalEdgeStyle;rounded=0;orthogonalLoop=1;jettySize=auto;html=1;entryX=0.648;entryY=0.027;entryDx=0;entryDy=0;entryPerimeter=0;" parent="1" source="3Mx3kTMHKag-bXKHGl6B-25" target="3Mx3kTMHKag-bXKHGl6B-1" edge="1">
          <mxGeometry relative="1" as="geometry" />
        </mxCell>
        <mxCell id="3Mx3kTMHKag-bXKHGl6B-28" style="edgeStyle=orthogonalEdgeStyle;rounded=0;orthogonalLoop=1;jettySize=auto;html=1;exitX=0.419;exitY=-0.006;exitDx=0;exitDy=0;exitPerimeter=0;" parent="1" source="3Mx3kTMHKag-bXKHGl6B-1" target="3Mx3kTMHKag-bXKHGl6B-25" edge="1">
          <mxGeometry relative="1" as="geometry">
            <mxPoint x="760" y="135" as="sourcePoint" />
            <mxPoint x="191" y="274" as="targetPoint" />
            <Array as="points">
              <mxPoint x="149" y="100" />
            </Array>
          </mxGeometry>
        </mxCell>
        <mxCell id="3Mx3kTMHKag-bXKHGl6B-30" style="edgeStyle=orthogonalEdgeStyle;rounded=0;orthogonalLoop=1;jettySize=auto;html=1;entryX=0.796;entryY=0.932;entryDx=0;entryDy=0;entryPerimeter=0;exitX=0.662;exitY=0.035;exitDx=0;exitDy=0;exitPerimeter=0;" parent="1" source="3Mx3kTMHKag-bXKHGl6B-2" target="3Mx3kTMHKag-bXKHGl6B-25" edge="1">
          <mxGeometry relative="1" as="geometry">
            <mxPoint x="840" y="195" as="sourcePoint" />
            <mxPoint x="840" y="275" as="targetPoint" />
          </mxGeometry>
        </mxCell>
        <mxCell id="3Mx3kTMHKag-bXKHGl6B-31" value="" style="endArrow=none;html=1;rounded=0;" parent="1" edge="1">
          <mxGeometry width="50" height="50" relative="1" as="geometry">
            <mxPoint x="1580" y="352.08" as="sourcePoint" />
            <mxPoint x="1714" y="352.08" as="targetPoint" />
          </mxGeometry>
        </mxCell>
        <mxCell id="3Mx3kTMHKag-bXKHGl6B-32" value="MySQL&lt;br&gt;User database" style="text;html=1;align=center;verticalAlign=middle;resizable=0;points=[];autosize=1;strokeColor=none;fillColor=none;" parent="1" vertex="1">
          <mxGeometry x="1597" y="307.08" width="100" height="40" as="geometry" />
        </mxCell>
        <mxCell id="3Mx3kTMHKag-bXKHGl6B-33" value="" style="endArrow=none;html=1;rounded=0;" parent="1" edge="1">
          <mxGeometry width="50" height="50" relative="1" as="geometry">
            <mxPoint x="1580" y="307.08" as="sourcePoint" />
            <mxPoint x="1714" y="307.08" as="targetPoint" />
          </mxGeometry>
        </mxCell>
        <mxCell id="3Mx3kTMHKag-bXKHGl6B-35" style="edgeStyle=orthogonalEdgeStyle;rounded=0;orthogonalLoop=1;jettySize=auto;html=1;" parent="1" edge="1">
          <mxGeometry relative="1" as="geometry">
            <mxPoint x="1380" y="320" as="targetPoint" />
            <mxPoint x="1550" y="320" as="sourcePoint" />
          </mxGeometry>
        </mxCell>
        <mxCell id="3Mx3kTMHKag-bXKHGl6B-36" value="Cloud service" style="ellipse;whiteSpace=wrap;html=1;aspect=fixed;" parent="1" vertex="1">
          <mxGeometry x="1610" y="70" width="80" height="80" as="geometry" />
        </mxCell>
        <mxCell id="3Mx3kTMHKag-bXKHGl6B-37" value="" style="endArrow=classic;html=1;rounded=0;entryX=0.5;entryY=1;entryDx=0;entryDy=0;" parent="1" edge="1">
          <mxGeometry width="50" height="50" relative="1" as="geometry">
            <mxPoint x="1670" y="300" as="sourcePoint" />
            <mxPoint x="1670" y="160" as="targetPoint" />
          </mxGeometry>
        </mxCell>
        <mxCell id="3Mx3kTMHKag-bXKHGl6B-39" value="Close contacts" style="ellipse;whiteSpace=wrap;html=1;aspect=fixed;" parent="1" vertex="1">
          <mxGeometry x="475" y="730" width="100" height="100" as="geometry" />
        </mxCell>
        <mxCell id="3Mx3kTMHKag-bXKHGl6B-47" style="edgeStyle=orthogonalEdgeStyle;rounded=0;orthogonalLoop=1;jettySize=auto;html=1;" parent="1" source="3Mx3kTMHKag-bXKHGl6B-45" target="3Mx3kTMHKag-bXKHGl6B-39" edge="1">
          <mxGeometry relative="1" as="geometry" />
        </mxCell>
        <mxCell id="3Mx3kTMHKag-bXKHGl6B-45" value="Emergency Notification and location for the danger&amp;nbsp;" style="rounded=1;whiteSpace=wrap;html=1;" parent="1" vertex="1">
          <mxGeometry x="430" y="500" width="190" height="80" as="geometry" />
        </mxCell>
        <mxCell id="3Mx3kTMHKag-bXKHGl6B-51" value="Https" style="rounded=1;whiteSpace=wrap;html=1;fillColor=#3DFF5D;" parent="1" vertex="1">
          <mxGeometry x="680" y="70" width="65" height="20" as="geometry" />
        </mxCell>
        <mxCell id="3Mx3kTMHKag-bXKHGl6B-52" value="Https" style="rounded=1;whiteSpace=wrap;html=1;fillColor=#3DFF5D;" parent="1" vertex="1">
          <mxGeometry x="680" y="140" width="65" height="20" as="geometry" />
        </mxCell>
        <mxCell id="3Mx3kTMHKag-bXKHGl6B-53" value="Https" style="rounded=1;whiteSpace=wrap;html=1;fillColor=#3DFF5D;" parent="1" vertex="1">
          <mxGeometry x="245" y="250" width="65" height="20" as="geometry" />
        </mxCell>
        <mxCell id="3Mx3kTMHKag-bXKHGl6B-54" value="Https" style="rounded=1;whiteSpace=wrap;html=1;fillColor=#3DFF5D;" parent="1" vertex="1">
          <mxGeometry x="245" y="347.08" width="65" height="20" as="geometry" />
        </mxCell>
        <mxCell id="3Mx3kTMHKag-bXKHGl6B-56" value="Https" style="rounded=1;whiteSpace=wrap;html=1;fillColor=#3DFF5D;" parent="1" vertex="1">
          <mxGeometry x="797" y="550" width="65" height="20" as="geometry" />
        </mxCell>
        <mxCell id="3Mx3kTMHKag-bXKHGl6B-58" value="Https" style="rounded=1;whiteSpace=wrap;html=1;fillColor=#3DFF5D;" parent="1" vertex="1">
          <mxGeometry x="917" y="395" width="65" height="20" as="geometry" />
        </mxCell>
        <mxCell id="3Mx3kTMHKag-bXKHGl6B-59" value="Https" style="rounded=1;whiteSpace=wrap;html=1;fillColor=#3DFF5D;" parent="1" vertex="1">
          <mxGeometry x="1017" y="307.08" width="65" height="20" as="geometry" />
        </mxCell>
        <mxCell id="3Mx3kTMHKag-bXKHGl6B-60" value="Https" style="rounded=1;whiteSpace=wrap;html=1;fillColor=#3DFF5D;" parent="1" vertex="1">
          <mxGeometry x="810" y="750" width="65" height="20" as="geometry" />
        </mxCell>
        <mxCell id="3Mx3kTMHKag-bXKHGl6B-61" value="Https" style="rounded=1;whiteSpace=wrap;html=1;fillColor=#3DFF5D;" parent="1" vertex="1">
          <mxGeometry x="1025" y="680" width="65" height="20" as="geometry" />
        </mxCell>
        <mxCell id="3Mx3kTMHKag-bXKHGl6B-63" value="Https" style="rounded=1;whiteSpace=wrap;html=1;fillColor=#3DFF5D;" parent="1" vertex="1">
          <mxGeometry x="450" y="470" width="65" height="20" as="geometry" />
        </mxCell>
        <mxCell id="3Mx3kTMHKag-bXKHGl6B-64" value="SMS&amp;nbsp;&lt;br&gt;&amp;nbsp;SS7 (Signaling System No. 7)" style="rounded=1;whiteSpace=wrap;html=1;fillColor=#3DFF5D;" parent="1" vertex="1">
          <mxGeometry x="414" y="650" width="93" height="60" as="geometry" />
        </mxCell>
        <mxCell id="3Mx3kTMHKag-bXKHGl6B-65" value="Https" style="rounded=1;whiteSpace=wrap;html=1;fillColor=#3DFF5D;" parent="1" vertex="1">
          <mxGeometry x="760" y="240" width="65" height="20" as="geometry" />
        </mxCell>
        <mxCell id="3Mx3kTMHKag-bXKHGl6B-66" value="Https" style="rounded=1;whiteSpace=wrap;html=1;fillColor=#3DFF5D;" parent="1" vertex="1">
          <mxGeometry x="875" y="190" width="65" height="20" as="geometry" />
        </mxCell>
        <mxCell id="3Mx3kTMHKag-bXKHGl6B-67" value="Https" style="rounded=1;whiteSpace=wrap;html=1;fillColor=#3DFF5D;" parent="1" vertex="1">
          <mxGeometry x="1710" y="210" width="65" height="20" as="geometry" />
        </mxCell>
        <mxCell id="3Mx3kTMHKag-bXKHGl6B-69" value="Https" style="rounded=1;whiteSpace=wrap;html=1;fillColor=#3DFF5D;" parent="1" vertex="1">
          <mxGeometry x="1390" y="287.08" width="65" height="20" as="geometry" />
        </mxCell>
        <mxCell id="3Mx3kTMHKag-bXKHGl6B-70" value="Https" style="rounded=1;whiteSpace=wrap;html=1;fillColor=#3DFF5D;" parent="1" vertex="1">
          <mxGeometry x="1480" y="347.08" width="65" height="20" as="geometry" />
        </mxCell>
        <mxCell id="3Mx3kTMHKag-bXKHGl6B-75" value="" style="endArrow=classic;html=1;rounded=0;" parent="1" edge="1">
          <mxGeometry width="50" height="50" relative="1" as="geometry">
            <mxPoint x="1630" y="160" as="sourcePoint" />
            <mxPoint x="1630" y="300" as="targetPoint" />
          </mxGeometry>
        </mxCell>
        <mxCell id="zNmBgSaeX_RNWdWd5nTt-9" value="" style="shape=rectangle;strokeColor=red;dashed=1;dashPattern=3 3;fillColor=none;html=1;" vertex="1" parent="1">
          <mxGeometry x="1590" y="20" width="140" height="140" as="geometry" />
        </mxCell>
        <mxCell id="zNmBgSaeX_RNWdWd5nTt-10" value="" style="shape=rectangle;strokeColor=red;dashed=1;dashPattern=3 3;fillColor=none;html=1;" vertex="1" parent="1">
          <mxGeometry x="1380" y="180" width="420" height="250" as="geometry" />
        </mxCell>
        <mxCell id="zNmBgSaeX_RNWdWd5nTt-11" value="" style="shape=rectangle;strokeColor=red;dashed=1;dashPattern=3 3;fillColor=none;html=1;" vertex="1" parent="1">
          <mxGeometry x="660" y="-60" width="1180" height="530" as="geometry" />
        </mxCell>
        <mxCell id="zNmBgSaeX_RNWdWd5nTt-12" value="" style="shape=rectangle;strokeColor=red;dashed=1;dashPattern=3 3;fillColor=none;html=1;" vertex="1" parent="1">
          <mxGeometry x="750" y="525" width="400" height="425" as="geometry" />
        </mxCell>
        <mxCell id="zNmBgSaeX_RNWdWd5nTt-13" value="" style="shape=rectangle;strokeColor=red;dashed=1;dashPattern=3 3;fillColor=none;html=1;" vertex="1" parent="1">
          <mxGeometry x="369" y="445" width="260" height="470" as="geometry" />
        </mxCell>
        <mxCell id="zNmBgSaeX_RNWdWd5nTt-17" value="" style="shape=rectangle;strokeColor=red;dashed=1;dashPattern=3 3;fillColor=none;html=1;" vertex="1" parent="1">
          <mxGeometry x="70" y="232.08" width="170" height="247.92" as="geometry" />
        </mxCell>
        <mxCell id="zNmBgSaeX_RNWdWd5nTt-23" value="&lt;div&gt;&lt;br/&gt;&lt;/div&gt;" style="text;html=1;align=center;verticalAlign=middle;whiteSpace=wrap;rounded=0;" vertex="1" parent="1">
          <mxGeometry x="1040" y="890" width="100" height="30" as="geometry" />
        </mxCell>
        <mxCell id="zNmBgSaeX_RNWdWd5nTt-26" value="Database trust boundary&amp;nbsp;" style="text;html=1;align=center;verticalAlign=middle;whiteSpace=wrap;rounded=0;" vertex="1" parent="1">
          <mxGeometry x="1357.5" y="182.5" width="130" height="35" as="geometry" />
        </mxCell>
        <mxCell id="zNmBgSaeX_RNWdWd5nTt-27" value="enterprise cloud" style="text;html=1;align=center;verticalAlign=middle;whiteSpace=wrap;rounded=0;" vertex="1" parent="1">
          <mxGeometry x="1590" y="20" width="100" height="20" as="geometry" />
        </mxCell>
        <mxCell id="zNmBgSaeX_RNWdWd5nTt-28" value="Cloud server trust boundary" style="text;html=1;align=center;verticalAlign=middle;whiteSpace=wrap;rounded=0;" vertex="1" parent="1">
          <mxGeometry x="660" y="-60" width="209" height="40" as="geometry" />
        </mxCell>
        <mxCell id="zNmBgSaeX_RNWdWd5nTt-29" value="App maintenance trust boundary" style="text;html=1;align=center;verticalAlign=middle;whiteSpace=wrap;rounded=0;" vertex="1" parent="1">
          <mxGeometry x="750" y="900" width="400" height="30" as="geometry" />
        </mxCell>
        <mxCell id="zNmBgSaeX_RNWdWd5nTt-30" value="Cell phone trust boundary" style="text;html=1;align=center;verticalAlign=middle;whiteSpace=wrap;rounded=0;" vertex="1" parent="1">
          <mxGeometry x="80" y="445" width="140" height="35" as="geometry" />
        </mxCell>
        <mxCell id="zNmBgSaeX_RNWdWd5nTt-32" value="Close contact trust boundary&amp;nbsp;" style="text;html=1;align=center;verticalAlign=middle;whiteSpace=wrap;rounded=0;" vertex="1" parent="1">
          <mxGeometry x="369" y="880" width="261" height="35" as="geometry" />
        </mxCell>
      </root>
    </mxGraphModel>
  </diagram>
</mxfile>
